<svg width="331" height="329" viewBox="0 0 331 329" fill="none" xmlns="http://www.w3.org/2000/svg">
<g filter="url(#filter0_dddd_4_514)">
<g filter="url(#filter1_i_4_514)">
<rect x="13.0078" y="13.0083" width="168.985" height="168.985" rx="47.3158" fill="#FE975F"/>
</g>
<rect x="13.0078" y="13.0083" width="168.985" height="168.985" rx="47.3158" stroke="#FE975F" stroke-opacity="0.2" stroke-width="1.51323"/>
<path d="M38.7623 104.467C39.4215 106.187 40.5339 107.599 42.0994 108.704C43.7062 109.768 45.4365 110.3 47.2905 110.3C49.8036 110.3 51.9666 109.379 53.7793 107.537C55.6333 105.654 56.5603 103.424 56.5603 100.845C56.5603 98.1024 55.6745 95.8307 53.9029 94.0296C52.1314 92.1877 49.8036 91.4509 46.9197 91.8193C45.7249 91.9421 44.6744 92.3514 43.768 93.0473C42.9028 93.7022 41.8934 94.6232 40.7399 95.8102C39.7923 96.8335 38.9889 97.5908 38.3297 98.082C37.7117 98.5732 37.032 98.7983 36.2904 98.7574C34.8484 98.7574 33.7978 98.2252 33.1386 97.161C32.4795 96.0558 32.0881 94.7869 31.9645 93.3543C31.8821 91.9216 31.9027 90.5504 32.0263 89.2405C32.1911 87.9307 32.2735 87.2758 32.2735 87.2758H37.6499C37.6499 87.2758 37.5675 87.767 37.4027 88.7494C37.2379 89.7317 37.1761 90.6322 37.2173 91.4509C37.2585 92.2286 37.5263 92.597 38.0207 92.5561C38.6387 92.4742 39.3597 91.9421 40.1837 90.9597C41.2137 89.8545 42.2436 88.954 43.2736 88.2582C44.3448 87.5214 45.6837 87.0302 47.2905 86.7846C50.0508 86.3343 52.5846 86.7437 54.8917 88.0126C57.1989 89.2815 59.0116 91.0825 60.33 93.4157C61.6483 95.7488 62.3075 98.2252 62.3075 100.845C62.3075 103.383 61.6483 105.777 60.33 108.029C59.0116 110.239 57.2401 111.979 55.0153 113.247C52.7906 114.516 50.3598 115.069 47.7231 114.905C44.2624 114.701 41.2754 113.37 38.7623 110.914V125.036H33.2622V104.467H38.7623Z" fill="white"/>
<path d="M86.4516 112.818C84.2268 114.087 81.8167 114.721 79.2212 114.721C76.5844 114.721 74.1331 114.087 71.8671 112.818C69.6424 111.549 67.8708 109.85 66.5525 107.722C65.2753 105.552 64.6367 103.199 64.6367 100.661C64.6367 98.082 65.2753 95.7283 66.5525 93.5999C67.8708 91.4304 69.6424 89.7317 71.8671 88.5038C74.1331 87.2348 76.5844 86.6004 79.2212 86.6004C81.8167 86.6004 84.2268 87.2348 86.4516 88.5038C88.6763 89.7317 90.4273 91.4304 91.7045 93.5999C93.0228 95.7693 93.682 98.1229 93.682 100.661C93.682 103.199 93.0228 105.552 91.7045 107.722C90.4273 109.85 88.6763 111.549 86.4516 112.818ZM85.5864 93.9682C83.8149 92.1263 81.6931 91.2053 79.2212 91.2053C76.708 91.2053 74.5657 92.1263 72.7941 93.9682C71.0226 95.8102 70.1368 98.041 70.1368 100.661C70.1368 103.239 71.0226 105.45 72.7941 107.292C74.5657 109.134 76.708 110.055 79.2212 110.055C81.6931 110.055 83.8149 109.134 85.5864 107.292C87.358 105.45 88.2437 103.239 88.2437 100.661C88.2437 98.041 87.358 95.8102 85.5864 93.9682Z" fill="white"/>
<path d="M96.088 114.168V76.4082H101.588V114.168H96.088Z" fill="white"/>
<path d="M111.545 104.467C112.204 106.187 113.316 107.599 114.882 108.704C116.488 109.768 118.219 110.3 120.073 110.3C122.586 110.3 124.749 109.379 126.562 107.537C128.415 105.654 129.342 103.424 129.342 100.845C129.342 98.1024 128.457 95.8307 126.685 94.0296C124.914 92.1877 122.586 91.4509 119.702 91.8193C118.507 91.9421 117.457 92.3514 116.55 93.0473C115.685 93.7022 114.676 94.6232 113.522 95.8102C112.574 96.8335 111.771 97.5908 111.112 98.082C110.494 98.5732 109.814 98.7983 109.073 98.7574C107.631 98.7574 106.58 98.2252 105.921 97.161C105.262 96.0558 104.87 94.7869 104.747 93.3543C104.664 91.9216 104.685 90.5504 104.808 89.2405C104.973 87.9307 105.056 87.2758 105.056 87.2758H110.432C110.432 87.2758 110.35 87.767 110.185 88.7494C110.02 89.7317 109.958 90.6322 110 91.4509C110.041 92.2286 110.309 92.597 110.803 92.5561C111.421 92.4742 112.142 91.9421 112.966 90.9597C113.996 89.8545 115.026 88.954 116.056 88.2582C117.127 87.5214 118.466 87.0302 120.073 86.7846C122.833 86.3343 125.367 86.7437 127.674 88.0126C129.981 89.2815 131.794 91.0825 133.112 93.4157C134.431 95.7488 135.09 98.2252 135.09 100.845C135.09 103.383 134.431 105.777 133.112 108.029C131.794 110.239 130.022 111.979 127.798 113.247C125.573 114.516 123.142 115.069 120.505 114.905C117.045 114.701 114.058 113.37 111.545 110.914V125.036H106.044V104.467H111.545Z" fill="white"/>
<path d="M159.234 112.818C157.009 114.087 154.599 114.721 152.003 114.721C149.367 114.721 146.915 114.087 144.649 112.818C142.425 111.549 140.653 109.85 139.335 107.722C138.058 105.552 137.419 103.199 137.419 100.661C137.419 98.082 138.058 95.7283 139.335 93.5999C140.653 91.4304 142.425 89.7317 144.649 88.5038C146.915 87.2348 149.367 86.6004 152.003 86.6004C154.599 86.6004 157.009 87.2348 159.234 88.5038C161.459 89.7317 163.209 91.4304 164.487 93.5999C165.805 95.7693 166.464 98.1229 166.464 100.661C166.464 103.199 165.805 105.552 164.487 107.722C163.209 109.85 161.459 111.549 159.234 112.818ZM158.369 93.9682C156.597 92.1263 154.475 91.2053 152.003 91.2053C149.49 91.2053 147.348 92.1263 145.576 93.9682C143.805 95.8102 142.919 98.041 142.919 100.661C142.919 103.239 143.805 105.45 145.576 107.292C147.348 109.134 149.49 110.055 152.003 110.055C154.475 110.055 156.597 109.134 158.369 107.292C160.14 105.45 161.026 103.239 161.026 100.661C161.026 98.041 160.14 95.8102 158.369 93.9682Z" fill="white"/>
</g>
<defs>
<filter id="filter0_dddd_4_514" x="-0.00043869" y="4.95911e-05" width="330.611" height="328.922" filterUnits="userSpaceOnUse" color-interpolation-filters="sRGB">
<feFlood flood-opacity="0" result="BackgroundImageFix"/>
<feColorMatrix in="SourceAlpha" type="matrix" values="0 0 0 0 0 0 0 0 0 0 0 0 0 0 0 0 0 0 127 0" result="hardAlpha"/>
<feOffset dx="5.91448" dy="5.91448"/>
<feGaussianBlur stdDeviation="9.08295"/>
<feColorMatrix type="matrix" values="0 0 0 0 0.380392 0 0 0 0 0.380392 0 0 0 0 0.380392 0 0 0 0.05 0"/>
<feBlend mode="normal" in2="BackgroundImageFix" result="effect1_dropShadow_4_514"/>
<feColorMatrix in="SourceAlpha" type="matrix" values="0 0 0 0 0 0 0 0 0 0 0 0 0 0 0 0 0 0 127 0" result="hardAlpha"/>
<feOffset dx="23.6579" dy="23.2354"/>
<feGaussianBlur stdDeviation="16.6873"/>
<feColorMatrix type="matrix" values="0 0 0 0 0.380392 0 0 0 0 0.380392 0 0 0 0 0.380392 0 0 0 0.04 0"/>
<feBlend mode="normal" in2="effect1_dropShadow_4_514" result="effect2_dropShadow_4_514"/>
<feColorMatrix in="SourceAlpha" type="matrix" values="0 0 0 0 0 0 0 0 0 0 0 0 0 0 0 0 0 0 127 0" result="hardAlpha"/>
<feOffset dx="53.2303" dy="52.3854"/>
<feGaussianBlur stdDeviation="22.3905"/>
<feColorMatrix type="matrix" values="0 0 0 0 0.380392 0 0 0 0 0.380392 0 0 0 0 0.380392 0 0 0 0.02 0"/>
<feBlend mode="normal" in2="effect2_dropShadow_4_514" result="effect3_dropShadow_4_514"/>
<feColorMatrix in="SourceAlpha" type="matrix" values="0 0 0 0 0 0 0 0 0 0 0 0 0 0 0 0 0 0 127 0" result="hardAlpha"/>
<feOffset dx="94.6316" dy="92.9418"/>
<feGaussianBlur stdDeviation="26.6151"/>
<feColorMatrix type="matrix" values="0 0 0 0 0.380392 0 0 0 0 0.380392 0 0 0 0 0.380392 0 0 0 0.01 0"/>
<feBlend mode="normal" in2="effect3_dropShadow_4_514" result="effect4_dropShadow_4_514"/>
<feBlend mode="normal" in="SourceGraphic" in2="effect4_dropShadow_4_514" result="shape"/>
</filter>
<filter id="filter1_i_4_514" x="8.21568" y="12.2515" width="174.533" height="182.604" filterUnits="userSpaceOnUse" color-interpolation-filters="sRGB">
<feFlood flood-opacity="0" result="BackgroundImageFix"/>
<feBlend mode="normal" in="SourceGraphic" in2="BackgroundImageFix" result="shape"/>
<feColorMatrix in="SourceAlpha" type="matrix" values="0 0 0 0 0 0 0 0 0 0 0 0 0 0 0 0 0 0 127 0" result="hardAlpha"/>
<feOffset dx="-4.03529" dy="12.1059"/>
<feGaussianBlur stdDeviation="6.05294"/>
<feComposite in2="hardAlpha" operator="arithmetic" k2="-1" k3="1"/>
<feColorMatrix type="matrix" values="0 0 0 0 1 0 0 0 0 1 0 0 0 0 1 0 0 0 0.25 0"/>
<feBlend mode="normal" in2="shape" result="effect1_innerShadow_4_514"/>
</filter>
</defs>
</svg>
