<svg width="368" height="133" viewBox="0 0 368 133" fill="none" xmlns="http://www.w3.org/2000/svg">
<path d="M18.7277 76.7437C20.5306 81.4457 23.573 85.3081 27.8549 88.3308C32.2495 91.2416 36.9821 92.697 42.0528 92.697C48.9264 92.697 54.8422 90.178 59.8002 85.1402C64.8708 79.9903 67.4062 73.8889 67.4062 66.8359C67.4062 59.335 64.9835 53.1216 60.1382 48.1957C55.2929 43.1578 48.9264 41.1427 41.0387 42.1502C37.7709 42.4861 34.8975 43.6056 32.4185 45.5088C30.0522 47.3001 27.2915 49.819 24.1364 53.0657C21.5447 55.8645 19.3474 57.9356 17.5445 59.279C15.8543 60.6225 13.9951 61.2382 11.9668 61.1263C8.02294 61.1263 5.14955 59.6709 3.34665 56.7601C1.54374 53.7374 0.473263 50.2668 0.135218 46.3485C-0.0901453 42.4301 -0.0338046 38.6797 0.30424 35.0972C0.754967 31.5147 0.980331 29.7235 0.980331 29.7235H15.6853C15.6853 29.7235 15.4599 31.0669 15.0092 33.7538C14.5585 36.4407 14.3895 38.9036 14.5021 41.1427C14.6148 43.2698 15.3472 44.2774 16.6994 44.1654C18.3897 43.9415 20.3616 42.4861 22.6152 39.7992C25.4323 36.7765 28.2493 34.3135 31.0663 32.4104C33.9961 30.3952 37.6582 29.0518 42.0528 28.3801C49.6025 27.1486 56.5324 28.2681 62.8426 31.7386C69.1528 35.2092 74.1108 40.1351 77.7166 46.5164C81.3224 52.8977 83.1253 59.6709 83.1253 66.8359C83.1253 73.7769 81.3224 80.3262 77.7166 86.4836C74.1108 92.529 69.2654 97.287 63.1806 100.758C57.0958 104.228 50.4476 105.739 43.236 105.292C33.7707 104.732 25.6013 101.093 18.7277 94.3763V133H3.68469V76.7437H18.7277Z" fill="#1D0C03"/>
<path d="M149.161 99.5821C143.076 103.053 136.484 104.788 129.385 104.788C122.173 104.788 115.469 103.053 109.271 99.5821C103.187 96.1115 98.3413 91.4655 94.7355 85.6439C91.2423 79.7104 89.4958 73.2731 89.4958 66.3321C89.4958 59.279 91.2423 52.8417 94.7355 47.0202C98.3413 41.0867 103.187 36.4407 109.271 33.0821C115.469 29.6115 122.173 27.8763 129.385 27.8763C136.484 27.8763 143.076 29.6115 149.161 33.0821C155.246 36.4407 160.035 41.0867 163.528 47.0202C167.133 52.9537 168.936 59.391 168.936 66.3321C168.936 73.2731 167.133 79.7104 163.528 85.6439C160.035 91.4655 155.246 96.1115 149.161 99.5821ZM146.794 48.0278C141.949 42.9899 136.146 40.471 129.385 40.471C122.512 40.471 116.652 42.9899 111.807 48.0278C106.961 53.0657 104.539 59.1671 104.539 66.3321C104.539 73.3851 106.961 79.4305 111.807 84.4684C116.652 89.5063 122.512 92.0253 129.385 92.0253C136.146 92.0253 141.949 89.5063 146.794 84.4684C151.64 79.4305 154.062 73.3851 154.062 66.3321C154.062 59.1671 151.64 53.0657 146.794 48.0278Z" fill="#1D0C03"/>
<path d="M175.517 103.277V0H190.56V103.277H175.517Z" fill="#1D0C03"/>
<path d="M217.791 76.7437C219.594 81.4457 222.637 85.3081 226.919 88.3308C231.313 91.2416 236.046 92.697 241.116 92.697C247.99 92.697 253.906 90.178 258.864 85.1402C263.935 79.9903 266.47 73.8889 266.47 66.8359C266.47 59.335 264.047 53.1216 259.202 48.1957C254.357 43.1578 247.99 41.1427 240.102 42.1502C236.835 42.4861 233.961 43.6056 231.482 45.5088C229.116 47.3001 226.355 49.819 223.2 53.0657C220.608 55.8645 218.411 57.9356 216.608 59.279C214.918 60.6225 213.059 61.2382 211.03 61.1263C207.087 61.1263 204.213 59.6709 202.41 56.7601C200.607 53.7374 199.537 50.2668 199.199 46.3485C198.974 42.4301 199.03 38.6797 199.368 35.0972C199.819 31.5147 200.044 29.7235 200.044 29.7235H214.749C214.749 29.7235 214.524 31.0669 214.073 33.7538C213.622 36.4407 213.453 38.9036 213.566 41.1427C213.678 43.2698 214.411 44.2774 215.763 44.1654C217.453 43.9415 219.425 42.4861 221.679 39.7992C224.496 36.7765 227.313 34.3135 230.13 32.4104C233.06 30.3952 236.722 29.0518 241.116 28.3801C248.666 27.1486 255.596 28.2681 261.906 31.7386C268.216 35.2092 273.174 40.1351 276.78 46.5164C280.386 52.8977 282.189 59.6709 282.189 66.8359C282.189 73.7769 280.386 80.3262 276.78 86.4836C273.174 92.529 268.329 97.287 262.244 100.758C256.159 104.228 249.511 105.739 242.3 105.292C232.834 104.732 224.665 101.093 217.791 94.3763V133H202.748V76.7437H217.791Z" fill="#1D0C03"/>
<path d="M348.224 99.5821C342.14 103.053 335.548 104.788 328.449 104.788C321.237 104.788 314.533 103.053 308.335 99.5821C302.25 96.1115 297.405 91.4655 293.799 85.6439C290.306 79.7104 288.559 73.2731 288.559 66.3321C288.559 59.279 290.306 52.8417 293.799 47.0202C297.405 41.0867 302.25 36.4407 308.335 33.0821C314.533 29.6115 321.237 27.8763 328.449 27.8763C335.548 27.8763 342.14 29.6115 348.224 33.0821C354.309 36.4407 359.098 41.0867 362.591 47.0202C366.197 52.9537 368 59.391 368 66.3321C368 73.2731 366.197 79.7104 362.591 85.6439C359.098 91.4655 354.309 96.1115 348.224 99.5821ZM345.858 48.0278C341.013 42.9899 335.21 40.471 328.449 40.471C321.575 40.471 315.716 42.9899 310.87 48.0278C306.025 53.0657 303.602 59.1671 303.602 66.3321C303.602 73.3851 306.025 79.4305 310.87 84.4684C315.716 89.5063 321.575 92.0253 328.449 92.0253C335.21 92.0253 341.013 89.5063 345.858 84.4684C350.703 79.4305 353.126 73.3851 353.126 66.3321C353.126 59.1671 350.703 53.0657 345.858 48.0278Z" fill="#1D0C03"/>
</svg>
