<svg width="169" height="169" viewBox="0 0 169 169" fill="none" xmlns="http://www.w3.org/2000/svg">
<mask id="mask0_4_516" style="mask-type:alpha" maskUnits="userSpaceOnUse" x="0" y="0" width="169" height="169">
<path d="M0 84.4925C0 49.6541 0 32.2349 8.72688 19.9355C11.8062 15.5956 15.5956 11.8062 19.9355 8.72688C32.2349 0 49.6541 0 84.4925 0C119.331 0 136.75 0 149.05 8.72688C153.389 11.8062 157.179 15.5956 160.258 19.9355C168.985 32.2349 168.985 49.6541 168.985 84.4925C168.985 119.331 168.985 136.75 160.258 149.05C157.179 153.389 153.389 157.179 149.05 160.258C136.75 168.985 119.331 168.985 84.4925 168.985C49.6541 168.985 32.2349 168.985 19.9355 160.258C15.5956 157.179 11.8062 153.389 8.72688 149.05C0 136.75 0 119.331 0 84.4925Z" fill="#FE975F"/>
<path d="M84.4922 0.422852C101.921 0.422852 114.959 0.422815 125.179 1.51074C135.39 2.59784 142.738 4.76706 148.805 9.07129C153.106 12.1231 156.862 15.8785 159.914 20.1797C164.218 26.2462 166.387 33.5948 167.474 43.8066C168.562 54.026 168.562 67.0639 168.562 84.4922C168.562 101.921 168.562 114.959 167.474 125.179C166.387 135.39 164.218 142.738 159.914 148.805C156.862 153.106 153.106 156.862 148.805 159.914C142.738 164.218 135.39 166.387 125.179 167.474C114.959 168.562 101.921 168.562 84.4922 168.562C67.0639 168.562 54.026 168.562 43.8066 167.474C33.5948 166.387 26.2462 164.218 20.1797 159.914C15.8785 156.862 12.1231 153.106 9.07129 148.805C4.76706 142.738 2.59784 135.39 1.51074 125.179C0.422815 114.959 0.422852 101.921 0.422852 84.4922C0.422852 67.0639 0.422828 54.026 1.51074 43.8066C2.59785 33.5948 4.76688 26.2462 9.07129 20.1797C12.1231 15.8786 15.8786 12.1231 20.1797 9.07129C26.2462 4.76688 33.5948 2.59785 43.8066 1.51074C54.026 0.422828 67.0639 0.422852 84.4922 0.422852Z" stroke="#FE975F" stroke-opacity="0.2" stroke-width="0.844925"/>
</mask>
<g mask="url(#mask0_4_516)">
<path d="M25.7545 90.4377C26.4137 92.1568 27.5261 93.569 29.0916 94.6742C30.6984 95.7384 32.4287 96.2705 34.2827 96.2705C36.7958 96.2705 38.9588 95.3496 40.7715 93.5076C42.6255 91.6247 43.5525 89.3939 43.5525 86.8151C43.5525 84.0726 42.6667 81.8009 40.8951 79.9999C39.1236 78.1579 36.7958 77.4211 33.9119 77.7895C32.7171 77.9123 31.6666 78.3216 30.7602 79.0175C29.895 79.6724 28.8856 80.5934 27.7321 81.7804C26.7845 82.8037 25.9811 83.561 25.3219 84.0522C24.7039 84.5434 24.0241 84.7685 23.2826 84.7276C21.8406 84.7276 20.79 84.1954 20.1308 83.1312C19.4717 82.026 19.0803 80.7571 18.9567 79.3245C18.8743 77.8918 18.8949 76.5206 19.0185 75.2108C19.1833 73.9009 19.2657 73.246 19.2657 73.246H24.6421C24.6421 73.246 24.5597 73.7372 24.3949 74.7196C24.2301 75.7019 24.1683 76.6025 24.2095 77.4211C24.2507 78.1988 24.5185 78.5672 25.0129 78.5263C25.6309 78.4444 26.3519 77.9123 27.1759 76.9299C28.2058 75.8247 29.2358 74.9242 30.2658 74.2284C31.337 73.4916 32.6759 73.0004 34.2827 72.7548C37.043 72.3046 39.5768 72.7139 41.8839 73.9828C44.191 75.2517 46.0038 77.0527 47.3222 79.3859C48.6405 81.719 49.2997 84.1954 49.2997 86.8151C49.2997 89.3529 48.6405 91.7475 47.3222 93.9988C46.0038 96.2091 44.2322 97.9488 42.0075 99.2177C39.7828 100.487 37.352 101.039 34.7153 100.875C31.2546 100.671 28.2676 99.3405 25.7545 96.8845V111.006H20.2544V90.4377H25.7545Z" fill="white"/>
<path d="M73.4438 98.7879C71.219 100.057 68.8089 100.691 66.2134 100.691C63.5766 100.691 61.1253 100.057 58.8593 98.7879C56.6346 97.519 54.863 95.8203 53.5447 93.6918C52.2675 91.5224 51.6289 89.1687 51.6289 86.6309C51.6289 84.0522 52.2675 81.6986 53.5447 79.5701C54.863 77.4006 56.6346 75.7019 58.8593 74.474C61.1253 73.2051 63.5766 72.5706 66.2134 72.5706C68.8089 72.5706 71.219 73.2051 73.4438 74.474C75.6685 75.7019 77.4195 77.4006 78.6966 79.5701C80.015 81.7395 80.6742 84.0931 80.6742 86.6309C80.6742 89.1687 80.015 91.5224 78.6966 93.6918C77.4195 95.8203 75.6685 97.519 73.4438 98.7879ZM72.5786 79.9385C70.807 78.0965 68.6853 77.1755 66.2134 77.1755C63.7002 77.1755 61.5579 78.0965 59.7863 79.9385C58.0148 81.7804 57.129 84.0112 57.129 86.6309C57.129 89.2097 58.0148 91.42 59.7863 93.262C61.5579 95.104 63.7002 96.0249 66.2134 96.0249C68.6853 96.0249 70.807 95.104 72.5786 93.262C74.3502 91.42 75.2359 89.2097 75.2359 86.6309C75.2359 84.0112 74.3502 81.7804 72.5786 79.9385Z" fill="white"/>
<path d="M83.0802 100.139V62.3784H88.5802V100.139H83.0802Z" fill="white"/>
<path d="M98.5367 90.4377C99.1959 92.1568 100.308 93.569 101.874 94.6742C103.481 95.7384 105.211 96.2705 107.065 96.2705C109.578 96.2705 111.741 95.3496 113.554 93.5076C115.408 91.6247 116.335 89.3939 116.335 86.8151C116.335 84.0726 115.449 81.8009 113.677 79.9999C111.906 78.1579 109.578 77.4211 106.694 77.7895C105.499 77.9123 104.449 78.3216 103.542 79.0175C102.677 79.6724 101.668 80.5934 100.514 81.7804C99.5667 82.8037 98.7633 83.561 98.1041 84.0522C97.4861 84.5434 96.8063 84.7685 96.0648 84.7276C94.6228 84.7276 93.5722 84.1954 92.913 83.1312C92.2539 82.026 91.8625 80.7571 91.7389 79.3245C91.6565 77.8918 91.6771 76.5206 91.8007 75.2108C91.9655 73.9009 92.0479 73.246 92.0479 73.246H97.4243C97.4243 73.246 97.3419 73.7372 97.1771 74.7196C97.0123 75.7019 96.9505 76.6025 96.9917 77.4211C97.0329 78.1988 97.3007 78.5672 97.7951 78.5263C98.4131 78.4444 99.1341 77.9123 99.9581 76.9299C100.988 75.8247 102.018 74.9242 103.048 74.2284C104.119 73.4916 105.458 73.0004 107.065 72.7548C109.825 72.3046 112.359 72.7139 114.666 73.9828C116.973 75.2517 118.786 77.0527 120.104 79.3859C121.423 81.719 122.082 84.1954 122.082 86.8151C122.082 89.3529 121.423 91.7475 120.104 93.9988C118.786 96.2091 117.014 97.9488 114.79 99.2177C112.565 100.487 110.134 101.039 107.497 100.875C104.037 100.671 101.05 99.3405 98.5367 96.8845V111.006H93.0366V90.4377H98.5367Z" fill="white"/>
<path d="M146.226 98.7879C144.001 100.057 141.591 100.691 138.996 100.691C136.359 100.691 133.907 100.057 131.642 98.7879C129.417 97.519 127.645 95.8203 126.327 93.6918C125.05 91.5224 124.411 89.1687 124.411 86.6309C124.411 84.0522 125.05 81.6986 126.327 79.5701C127.645 77.4006 129.417 75.7019 131.642 74.474C133.907 73.2051 136.359 72.5706 138.996 72.5706C141.591 72.5706 144.001 73.2051 146.226 74.474C148.451 75.7019 150.202 77.4006 151.479 79.5701C152.797 81.7395 153.456 84.0931 153.456 86.6309C153.456 89.1687 152.797 91.5224 151.479 93.6918C150.202 95.8203 148.451 97.519 146.226 98.7879ZM145.361 79.9385C143.589 78.0965 141.467 77.1755 138.996 77.1755C136.482 77.1755 134.34 78.0965 132.569 79.9385C130.797 81.7804 129.911 84.0112 129.911 86.6309C129.911 89.2097 130.797 91.42 132.569 93.262C134.34 95.104 136.482 96.0249 138.996 96.0249C141.467 96.0249 143.589 95.104 145.361 93.262C147.132 91.42 148.018 89.2097 148.018 86.6309C148.018 84.0112 147.132 81.7804 145.361 79.9385Z" fill="white"/>
</g>
</svg>
